<svg preserveAspectRatio="none" width="100%" height="100%" overflow="visible" style="display: block;" viewBox="0 0 32 32" fill="none" xmlns="http://www.w3.org/2000/svg">
<g id="mic">
<path id="Shape" d="M6.66667 13.3333V16C6.66667 18.4754 7.65 20.8493 9.40034 22.5997C11.1507 24.35 13.5246 25.3333 16 25.3333C18.4754 25.3333 20.8493 24.35 22.5997 22.5997C24.35 20.8493 25.3333 18.4754 25.3333 16V13.3333M16 25.3333V29.3333M16 2.66667C14.9391 2.66667 13.9217 3.08809 13.1716 3.83824C12.4214 4.58839 12 5.6058 12 6.66667V16C12 17.0609 12.4214 18.0783 13.1716 18.8284C13.9217 19.5786 14.9391 20 16 20C17.0609 20 18.0783 19.5786 18.8284 18.8284C19.5786 18.0783 20 17.0609 20 16V6.66667C20 5.6058 19.5786 4.58839 18.8284 3.83824C18.0783 3.08809 17.0609 2.66667 16 2.66667Z" stroke="var(--stroke-0, #941D28)" stroke-width="2.66667" stroke-linecap="round" stroke-linejoin="round"/>
</g>
</svg>
