<svg preserveAspectRatio="none" width="100%" height="100%" overflow="visible" style="display: block;" viewBox="0 0 20 20" fill="none" xmlns="http://www.w3.org/2000/svg">
<g id="bed-double">
<path id="Shape" d="M16.6667 8.33333H3.33333C2.89131 8.33333 2.46738 8.50893 2.15482 8.82149C1.84226 9.13405 1.66667 9.55797 1.66667 10V16.6667M3.33333 8.33333V5C3.33333 4.55797 3.50893 4.13405 3.82149 3.82149C4.13405 3.50893 4.55797 3.33333 5 3.33333H15C15.442 3.33333 15.8659 3.50893 16.1785 3.82149C16.4911 4.13405 16.6667 4.55797 16.6667 5V8.33333M16.6667 8.33333C17.1087 8.33333 17.5326 8.50893 17.8452 8.82149C18.1577 9.13405 18.3333 9.55797 18.3333 10V16.6667M10 3.33333V8.33333M1.66667 15H18.3333" stroke="var(--stroke-0, white)" stroke-linecap="round" stroke-linejoin="round"/>
</g>
</svg>
