<svg preserveAspectRatio="none" width="100%" height="100%" overflow="visible" style="display: block;" viewBox="0 0 20 20" fill="none" xmlns="http://www.w3.org/2000/svg">
<g id="warehouse">
<path id="Shape" d="M5 15H15M5 11.6667H15M18.3333 6.95825V16.6666C18.3333 17.1086 18.1577 17.5325 17.8452 17.8451C17.5326 18.1577 17.1087 18.3332 16.6667 18.3332H3.33333C2.89131 18.3332 2.46738 18.1577 2.15482 17.8451C1.84226 17.5325 1.66667 17.1086 1.66667 16.6666V6.95825C1.66801 6.62587 1.7687 6.30149 1.9558 6.02677C2.14291 5.75205 2.40787 5.53956 2.71667 5.41658L9.38333 2.74991C9.77932 2.59221 10.2207 2.59221 10.6167 2.74991L17.2833 5.41658C17.5921 5.53956 17.8571 5.75205 18.0442 6.02677C18.2313 6.30149 18.332 6.62587 18.3333 6.95825ZM5 8.33333H15V18.3333H5V8.33333Z" stroke="var(--stroke-0, white)" stroke-linecap="round" stroke-linejoin="round"/>
</g>
</svg>
